<svg xmlns="http://www.w3.org/2000/svg"  viewBox="0 0 512 512" width="256px" height="256px"><g data-name="6 Submit"><path fill="#fcd8d8" d="M501.0044,143.0141v119.55a31.3169,31.3169,0,0,1-31.32,31.32h-39.65l-59.01-24.89a12.4889,12.4889,0,0,0-16.36,16.36l3.6,8.53H42.3144a31.3147,31.3147,0,0,1-31.31-31.32v-119.55a31.3126,31.3126,0,0,1,31.31-31.31h427.37A31.3148,31.3148,0,0,1,501.0044,143.0141Z"/><path fill="#cfdce5" d="M478.328,314.2508,371.023,268.9941a12.4885,12.4885,0,0,0-16.36,16.36L399.92,392.6589c4.8088,11.4016,21.49,9.618,23.78-2.5426l6.674-35.4495a12.4883,12.4883,0,0,1,9.9622-9.9622l35.45-6.6741C487.946,335.741,489.73,319.06,478.328,314.2508Z"/><path fill="#eacccc" d="M138.4443,293.884h-96.13a31.3147,31.3147,0,0,1-31.31-31.32v-119.55a31.3126,31.3126,0,0,1,31.31-31.31h13.21A497.78,497.78,0,0,0,138.4443,293.884Z"/><path fill="#f17b89" d="M250.0356,195.6806a26.9288,26.9288,0,0,0,9.9336-20.89v-1.0279a27.0014,27.0014,0,0,0-26.9707-26.9707H206.4926a13.8625,13.8625,0,0,0-13.8466,13.8472V244.945a13.8625,13.8625,0,0,0,13.8466,13.8471h24.4522a33.8715,33.8715,0,0,0,33.833-33.8335v-1.3642A33.8192,33.8192,0,0,0,250.0356,195.6806Zm-45.39-35.0413a1.8488,1.8488,0,0,1,1.8466-1.8472h26.5059a14.9877,14.9877,0,0,1,14.9707,14.9707v1.0279a14.9877,14.9877,0,0,1-14.9707,14.9707H204.646Zm48.1318,64.3193a21.8577,21.8577,0,0,1-21.833,21.8335H206.4926a1.8488,1.8488,0,0,1-1.8466-1.8471V201.7614h26.2988a21.8576,21.8576,0,0,1,21.833,21.833Z"/><path fill="#f17b89" d="M380.7876,146.7921a6,6,0,0,0-6,6v100a6,6,0,0,0,12,0v-100A6,6,0,0,0,380.7876,146.7921Z"/><path fill="#f17b89" d="M357.5005,147.0587a7.6624,7.6624,0,0,0-8.7139,3.61l-29.0039,50.2368-29.0039-50.2363a7.7461,7.7461,0,0,0-14.4551,3.8725v98.2505a6,6,0,1,0,12,0V170.4157l23.6826,41.0205a8.98,8.98,0,0,0,15.5532-.0005l23.6831-41.02v82.3764a6,6,0,0,0,12,0V154.5416A7.6621,7.6621,0,0,0,357.5005,147.0587Z"/><path fill="#f17b89" d="M76.8471,196.9191l-.0424-.0049-.0074-.0007-.05-.0047c-.5332-.0636-1.0747-.1145-1.6255-.1494-.415-.0261-.8227-.0356-1.23-.0439a19.0386,19.0386,0,1,1,16.2231-32,6,6,0,0,0,8.6939-8.2715,31.0425,31.0425,0,1,0-26.1939,52.2124c.0845.01.1729.0142.2578.0239.0161.0012.0318.0047.0479.0059h.0024l.022.0007c.4668.052.9355.1011,1.415.1311.4121.0264.8194.0327,1.2276.0416a19.0435,19.0435,0,1,1-19.0909,28.1078,6,6,0,1,0-10.4912,5.8243A30.9394,30.9394,0,0,0,71.2085,258.73q1.0033.063,1.999.063a31.0468,31.0468,0,0,0,3.64-61.8735Z"/><path fill="#f17b89" d="M460.749,146.7921H404.333a6,6,0,1,0,0,12h22.208v94a6,6,0,1,0,12,0v-94h22.208a6,6,0,0,0,0-12Z"/><path fill="#f17b89" d="M173.9316,146.7921a6,6,0,0,0-6,6v73.0528a20.9469,20.9469,0,0,1-41.8931.1792c-.4931-59.1475-.09-69.878.085-71.7969a6.0012,6.0012,0,0,0-10.8267-4.7534c-1.2622,1.9013-1.49,2.2436-1.4956,29.4038-.0034,15.0932.127,34.0234.2373,47.2461a32.9471,32.9471,0,0,0,65.8931-.2788V152.7921A6,6,0,0,0,173.9316,146.7921Z"/></g></svg>